<svg xmlns="http://www.w3.org/2000/svg" viewBox="0 0 512 512">
  <defs>
    <linearGradient id="bg" x1="0%" y1="0%" x2="100%" y2="100%">
      <stop offset="0%" style="stop-color:#ab1f49"/>
      <stop offset="100%" style="stop-color:#7a1c3c"/>
    </linearGradient>
    <linearGradient id="gold" x1="0%" y1="0%" x2="100%" y2="100%">
      <stop offset="0%" style="stop-color:#f2c41d"/>
      <stop offset="100%" style="stop-color:#c3840b"/>
    </linearGradient>
  </defs>
  <rect width="512" height="512" rx="96" fill="url(#bg)"/>
  <!-- Dress/Bodo shape -->
  <path d="M256 100 c-20 0-40 10-50 25 l-10 20 c-5 10-8 22-8 35 l0 30 c0 10 3 20 8 28 l-60 120 c-5 10-2 22 8 28 l100 50 c8 4 18 4 26 0 l100-50 c10-6 13-18 8-28 l-60-120 c5-8 8-18 8-28 l0-30 c0-13-3-25-8-35 l-10-20 c-10-15-30-25-52-25z" fill="url(#gold)" opacity="0.9"/>
  <!-- Neckline -->
  <ellipse cx="256" cy="145" rx="35" ry="15" fill="url(#bg)" opacity="0.5"/>
  <!-- Pattern lines -->
  <line x1="220" y1="200" x2="200" y2="350" stroke="url(#bg)" stroke-width="3" opacity="0.3"/>
  <line x1="256" y1="180" x2="256" y2="380" stroke="url(#bg)" stroke-width="3" opacity="0.3"/>
  <line x1="292" y1="200" x2="312" y2="350" stroke="url(#bg)" stroke-width="3" opacity="0.3"/>
  <!-- POS text -->
  <text x="256" y="460" text-anchor="middle" font-family="Arial,sans-serif" font-weight="bold" font-size="48" fill="white" letter-spacing="8">POS</text>
</svg>
